<svg width="222" height="50" viewBox="0 0 222 50" fill="none" xmlns="http://www.w3.org/2000/svg">
<g clip-path="url(#clip0_3_72)">
<path d="M92.496 19.576C92.496 20.7707 92.208 21.8907 91.632 22.936C91.0773 23.9813 90.192 24.824 88.976 25.464C87.7813 26.104 86.2667 26.424 84.432 26.424H80.688V35H76.208V12.664H84.432C86.16 12.664 87.632 12.9627 88.848 13.56C90.064 14.1573 90.9707 14.9787 91.568 16.024C92.1867 17.0693 92.496 18.2533 92.496 19.576ZM84.24 22.808C85.4773 22.808 86.3947 22.5307 86.992 21.976C87.5893 21.4 87.888 20.6 87.888 19.576C87.888 17.4 86.672 16.312 84.24 16.312H80.688V22.808H84.24ZM100.157 11.32V35H95.6768V11.32H100.157ZM103.431 26.072C103.431 24.28 103.783 22.6907 104.487 21.304C105.212 19.9173 106.183 18.8507 107.399 18.104C108.636 17.3573 110.012 16.984 111.527 16.984C112.85 16.984 114.002 17.2507 114.983 17.784C115.986 18.3173 116.786 18.9893 117.383 19.8V17.272H121.895V35H117.383V32.408C116.807 33.24 116.007 33.9333 114.983 34.488C113.98 35.0213 112.818 35.288 111.495 35.288C110.002 35.288 108.636 34.904 107.399 34.136C106.183 33.368 105.212 32.2907 104.487 30.904C103.783 29.496 103.431 27.8853 103.431 26.072ZM117.383 26.136C117.383 25.048 117.17 24.12 116.743 23.352C116.316 22.5627 115.74 21.9653 115.015 21.56C114.29 21.1333 113.511 20.92 112.679 20.92C111.847 20.92 111.079 21.1227 110.375 21.528C109.671 21.9333 109.095 22.5307 108.647 23.32C108.22 24.088 108.007 25.0053 108.007 26.072C108.007 27.1387 108.22 28.0773 108.647 28.888C109.095 29.6773 109.671 30.2853 110.375 30.712C111.1 31.1387 111.868 31.352 112.679 31.352C113.511 31.352 114.29 31.1493 115.015 30.744C115.74 30.3173 116.316 29.72 116.743 28.952C117.17 28.1627 117.383 27.224 117.383 26.136ZM143.231 17.272L132.255 43.384H127.487L131.327 34.552L124.223 17.272H129.247L133.823 29.656L138.463 17.272H143.231ZM152.59 16.984C153.912 16.984 155.075 17.2507 156.078 17.784C157.08 18.296 157.87 18.968 158.446 19.8V17.272H162.958V35.128C162.958 36.7707 162.627 38.232 161.966 39.512C161.304 40.8133 160.312 41.8373 158.99 42.584C157.667 43.352 156.067 43.736 154.19 43.736C151.672 43.736 149.603 43.1493 147.982 41.976C146.382 40.8027 145.475 39.2027 145.262 37.176H149.71C149.944 37.9867 150.446 38.6267 151.214 39.096C152.003 39.5867 152.952 39.832 154.062 39.832C155.363 39.832 156.419 39.4373 157.23 38.648C158.04 37.88 158.446 36.7067 158.446 35.128V32.376C157.87 33.208 157.07 33.9013 156.046 34.456C155.043 35.0107 153.891 35.288 152.59 35.288C151.096 35.288 149.731 34.904 148.494 34.136C147.256 33.368 146.275 32.2907 145.549 30.904C144.845 29.496 144.493 27.8853 144.493 26.072C144.493 24.28 144.845 22.6907 145.549 21.304C146.275 19.9173 147.246 18.8507 148.462 18.104C149.699 17.3573 151.075 16.984 152.59 16.984ZM158.446 26.136C158.446 25.048 158.232 24.12 157.806 23.352C157.379 22.5627 156.803 21.9653 156.078 21.56C155.352 21.1333 154.574 20.92 153.742 20.92C152.91 20.92 152.142 21.1227 151.438 21.528C150.734 21.9333 150.158 22.5307 149.71 23.32C149.283 24.088 149.07 25.0053 149.07 26.072C149.07 27.1387 149.283 28.0773 149.71 28.888C150.158 29.6773 150.734 30.2853 151.438 30.712C152.163 31.1387 152.931 31.352 153.742 31.352C154.574 31.352 155.352 31.1493 156.078 30.744C156.803 30.3173 157.379 29.72 157.806 28.952C158.232 28.1627 158.446 27.224 158.446 26.136ZM183.813 25.752C183.813 26.392 183.77 26.968 183.685 27.48H170.725C170.832 28.76 171.28 29.7627 172.069 30.488C172.858 31.2133 173.829 31.576 174.981 31.576C176.645 31.576 177.829 30.8613 178.533 29.432H183.365C182.853 31.1387 181.872 32.5467 180.421 33.656C178.97 34.744 177.189 35.288 175.077 35.288C173.37 35.288 171.834 34.9147 170.469 34.168C169.125 33.4 168.069 32.3227 167.301 30.936C166.554 29.5493 166.181 27.9493 166.181 26.136C166.181 24.3013 166.554 22.6907 167.301 21.304C168.048 19.9173 169.093 18.8507 170.437 18.104C171.781 17.3573 173.328 16.984 175.077 16.984C176.762 16.984 178.266 17.3467 179.589 18.072C180.933 18.7973 181.968 19.832 182.693 21.176C183.44 22.4987 183.813 24.024 183.813 25.752ZM179.173 24.472C179.152 23.32 178.736 22.4027 177.925 21.72C177.114 21.016 176.122 20.664 174.949 20.664C173.84 20.664 172.901 21.0053 172.133 21.688C171.386 22.3493 170.928 23.2773 170.757 24.472H179.173ZM196.907 17.016C199.019 17.016 200.726 17.688 202.027 19.032C203.328 20.3547 203.979 22.2107 203.979 24.6V35H199.499V25.208C199.499 23.8 199.147 22.7227 198.443 21.976C197.739 21.208 196.779 20.824 195.563 20.824C194.326 20.824 193.344 21.208 192.619 21.976C191.915 22.7227 191.563 23.8 191.563 25.208V35H187.083V17.272H191.563V19.48C192.16 18.712 192.918 18.1147 193.835 17.688C194.774 17.24 195.798 17.016 196.907 17.016ZM213.455 20.952V29.528C213.455 30.1253 213.594 30.5627 213.871 30.84C214.17 31.096 214.661 31.224 215.343 31.224H217.423V35H214.607C210.831 35 208.943 33.1653 208.943 29.496V20.952H206.831V17.272H208.943V12.888H213.455V17.272H217.423V20.952H213.455Z" fill="#E5E7EB"/>
<path d="M34 51.5L12 44L0 0H68L56.5 44L34 51.5Z" fill="#00E5FF"/>
<path d="M0 0L34 12M0 0L12 44L34 51.5M0 0H68M0 0L16.5 24L34 12M68 0L34 12M68 0L56.5 44L34 51.5M34 12V51.5" stroke="black" stroke-width="3"/>
</g>
<defs>
<clipPath id="clip0_3_72">
<rect width="222" height="50" fill="white"/>
</clipPath>
</defs>
</svg>
